<?xml version="1.0" encoding="UTF-8" standalone="no"?>
<svg width="40px" height="40px" viewBox="0 0 40 40" version="1.1" xmlns="http://www.w3.org/2000/svg" xmlns:xlink="http://www.w3.org/1999/xlink" xmlns:sketch="http://www.bohemiancoding.com/sketch/ns">
    <!-- Generator: Sketch Beta 3.2.2 (9983) - http://www.bohemiancoding.com/sketch -->
    <title>Icon-Small-40</title>
    <desc>Created with Sketch Beta.</desc>
    <defs>
        <path d="M30.9490602,12.8307082 C30.8900169,14.8540547 28.4855885,18.2820469 25.7565889,21.5407429 C25.6415046,21.6775479 23.781475,22.8581754 23.6657235,22.9949804 C23.5056062,23.1851394 25.0697523,22.3496026 24.8886196,22.5585723 C21.4727834,26.4920591 17.9001656,29.9255236 17.9001656,29.9255236 C15.900367,31.2388519 13.5289627,30.6680329 13.5289627,30.6680329 C13.3825221,30.5770575 13.2467559,30.4847141 13.1159935,30.3910027 C20.1744987,23.201556 28.2320694,13.750038 28.0199139,8.44234461 C28.0282534,8.16360435 27.9888912,8.04253189 27.9888912,8.04253189 C28.0055701,8.17283869 28.0145767,8.30656561 28.0199139,8.44234461 C27.9852219,9.59424302 27.13193,13.4476989 19.2841797,22.6615181 C18.2927866,23.826071 15.5220898,26.7766136 12.5302309,29.9221034 C10.0253956,27.6655044 11.2022579,24.9536865 11.2022579,24.9536865 C11.0831706,23.1800092 14.0393367,21.0759477 14.0393367,21.0759477 L13.8288491,22.7979811 L14.4649819,20.5174412 C14.4649819,20.5174412 20.4063353,13.2968713 23.067285,10.1329129 C25.7279012,6.96861235 29.2204603,8.26141995 29.2204603,8.26141995 C31.3890493,9.44136339 31.0174436,10.4479064 30.9490602,12.8307082 L30.9490602,12.8307082 L30.9490602,12.8307082 Z M27.9888912,8.0428739 C27.9888912,8.0428739 28.0282534,8.16394636 28.0199139,8.44268662 C28.0145767,8.30690762 28.0055701,8.1731807 27.9888912,8.0428739 L27.9888912,8.0428739 L27.9888912,8.0428739 Z M9.3652452,33.142836 L9.80723572,32.2262423 C9.80723572,32.2262423 10.7379177,31.8083029 12.5392375,29.9135531 L13.1176614,30.3896346 C7.56492606,36.0458389 9.16609928,33.4075538 9.3652452,33.142836 L9.3652452,33.142836 L9.3652452,33.142836 Z" id="path-1"></path>
    </defs>
    <g id="Page-1" stroke="none" stroke-width="1" fill="none" fill-rule="evenodd" sketch:type="MSPage">
        <g id="Icon-Small-40" sketch:type="MSArtboardGroup">
            <path d="M13.9456667,0 L26.0543333,0 C30.07,0 32.0773333,0 34.239,0.683333333 C36.599,1.54233333 38.4576667,3.401 39.3166667,5.761 C40,7.92233333 40,9.93033333 40,13.9456667 L40,26.0543333 C40,30.07 40,32.0773333 39.3166667,34.239 C38.4576667,36.599 36.599,38.4576667 34.239,39.3163333 C32.0773333,40 30.07,40 26.0543333,40 L13.9456667,40 C9.93,40 7.92233333,40 5.761,39.3163333 C3.401,38.4576667 1.54233333,36.599 0.683333333,34.239 C0,32.0773333 0,30.07 0,26.0543333 L0,13.9456667 C0,9.93033333 0,7.92233333 0.683333333,5.761 C1.54233333,3.401 3.401,1.54233333 5.761,0.683333333 C7.92233333,0 9.93,0 13.9456667,0 L13.9456667,0" id="Icon-Shape" fill="#D7D7D7" sketch:type="MSShapeGroup"></path>
            <path d="M13.9446453,0 L26.0524251,0 C30.0677976,0 32.0749839,0 34.2364923,0.683283285 C36.5963194,1.54222037 38.4548499,3.4007509 39.313787,5.76057805 C39.9970703,7.92175308 39.9970703,9.92960601 39.9970703,13.9446453 L39.9970703,26.0524251 C39.9970703,30.0677976 39.9970703,32.0749839 39.313787,34.2364923 C38.4548499,36.5963194 36.5963194,38.4548499 34.2364923,39.3134537 C32.0749839,39.9970703 30.0677976,39.9970703 26.0524251,39.9970703 L13.9446453,39.9970703 C9.92927271,39.9970703 7.92175308,39.9970703 5.76057805,39.3134537 C3.4007509,38.4548499 1.54222037,36.5963194 0.683283285,34.2364923 C0,32.0749839 0,30.0677976 0,26.0524251 L0,13.9446453 C0,9.92960601 0,7.92175308 0.683283285,5.76057805 C1.54222037,3.4007509 3.4007509,1.54222037 5.76057805,0.683283285 C7.92175308,0 9.92927271,0 13.9446453,0 L13.9446453,0" id="Icon-Shape-2" fill="#DB636D" sketch:type="MSShapeGroup"></path>
            <mask id="mask-2" sketch:name="SVGID_1_ 12" fill="white">
                <use xlink:href="#path-1"></use>
            </mask>
            <use id="SVGID_1_-12" fill="#FFFFFF" sketch:type="MSShapeGroup" xlink:href="#path-1"></use>
        </g>
    </g>
</svg>